PathFileType	4	(X/Y/Z)	Patient4_TMGait_0pt4_01_left_10.trc.trc
DataRate	CameraRate	NumFrames	NumMarkers	Units	OrigDataRate	OrigDataStartFrame	OrigNumFrames
74.074074074074	74.074074074074	4	33	mm	74.074074074074	53	       141
Frame#	Time	Sacral			L.Shoulder			Chest			R.Shoulder			Neck			R.ASIS			L.ASIS			R.Thigh.Superior			R.Thigh.Lateral			R.Thigh.Inferior			R.Patella			L.Thigh.Superior			L.Thigh.Lateral			L.Thigh.Inferior			L.Patella			L.Shank.Superior			L.Shank.Lateral			L.Shank.Inferior			R.Shank.Superior			R.Shank.Lateral			R.Shank.Inferior			R.Heel			R.Midfoot.Superior			R.Midfoot.Lateral			R.Toe			L.Heel			L.Midfoot.Lateral			L.Midfoot.Superior			L.Toe			L.Elbow			L.Wrist			R.Elbow			R.Wrist			
		X1	Y1	Z1	X2	Y2	Z2	X3	Y3	Z3	X4	Y4	Z4	X5	Y5	Z5	X6	Y6	Z6	X7	Y7	Z7	X8	Y8	Z8	X9	Y9	Z9	X10	Y10	Z10	X11	Y11	Z11	X12	Y12	Z12	X13	Y13	Z13	X14	Y14	Z14	X15	Y15	Z15	X16	Y16	Z16	X17	Y17	Z17	X18	Y18	Z18	X19	Y19	Z19	X20	Y20	Z20	X21	Y21	Z21	X22	Y22	Z22	X23	Y23	Z23	X24	Y24	Z24	X25	Y25	Z25	X26	Y26	Z26	X27	Y27	Z27	X28	Y28	Z28	X29	Y29	Z29	X30	Y30	Z30	X31	Y31	Z31	X32	Y32	Z32	X33	Y33	Z33	

53	12.682000000000	793.424894963708	1010.284637418494	452.682774412415	985.113483027509	1438.191963659202	272.991269590020	1075.908841432454	1372.138712797850	441.457330643694	981.213491684377	1446.474460429772	609.690397449838	958.708592964915	1502.512314967865	427.438493970406	1018.643316752872	953.718495863435	580.374884459900	1017.751548886984	967.368929263782	304.504384286800	1092.299179463542	772.069659694931	561.275463265064	1039.559512357042	654.408229001584	634.436950530339	1130.351783332464	606.849133452943	562.615873405130	1139.337752549246	495.677586004778	588.642734068969	1056.782489837310	750.326166786318	335.265570691480	962.059799085761	635.915223741060	280.614358259814	1043.770836169230	556.997429849759	344.045348210915	1040.852601218691	488.774959813986	356.603515770675	1013.301541928217	417.156623441443	351.131755655501	920.853656188098	303.419835109008	303.443227438725	968.470533526642	193.457113052727	379.299861398065	1061.321706799966	423.414888709199	593.060980518387	938.448796901290	387.778911731764	652.861556660596	921.216757619394	279.198574635328	603.213677715749	718.060561281583	223.732824203221	576.796837963027	885.709280892340	158.336538552075	610.937716062191	775.222285530724	154.728575825489	643.055884301081	949.043235770399	42.147917838343	625.111099169839	836.526564707821	39.253894949559	425.380350787716	911.635758255167	35.812724847300	345.892789924461	995.444741099302	95.806311592532	372.766371668745	1124.111973211854	40.187454310857	347.323069155895	994.662905097875	1096.696869313665	129.345650364565	1199.263204113327	933.732098991293	135.488551963715	898.622439763018	1108.025852177872	725.433280855994	935.237676221873	848.963480776493	733.012577587216	
54	12.695500000000	792.446093643926	1010.851813526359	451.317400713448	986.284304299498	1438.199011883147	271.448491985687	1075.396547136347	1372.571846111312	440.952225954234	979.271386555246	1447.599353746972	608.008229142804	958.543725840678	1502.978620071601	425.533463209890	1017.112360761681	954.763986800719	580.023605895759	1017.977995008939	968.027997265710	303.929934103380	1093.405703690210	775.697494253740	560.411868691680	1043.387757838465	657.272639557137	634.215898526163	1134.783679115010	611.194322792701	562.144641462708	1146.105491473283	500.211191087494	588.388855037940	1054.309005390798	749.657416344035	335.264567712787	958.433086177005	636.154525753002	280.297580833096	1038.977221742338	556.514837900737	344.039749330649	1035.284628199350	488.570696704902	356.632024282108	1007.880740274529	417.215479759277	350.982402624088	915.369480403252	303.515226918235	303.223606283076	963.147634883003	193.592396712621	379.169494312159	1069.389199255461	426.598442420875	592.803643712040	947.194896092328	388.540086452882	652.450786009034	932.165830769330	279.641503091665	602.899259881939	730.287923637876	219.402911889715	576.296130969189	899.311744517197	158.388521850945	610.685576638191	789.051715304621	152.255322483876	642.916973088262	965.363050188590	43.839794430995	625.581097676020	831.027278472020	39.286664171208	425.291743126790	906.183416288156	35.810848733449	345.833137927254	989.993837986475	95.815839476098	372.674784643781	1118.652845442418	40.193385561445	347.272763837683	1001.151619549285	1097.176282182890	127.681981303688	1210.354673359050	940.464032545772	134.125259960979	888.261495580808	1111.536205674623	723.235279007145	918.526803689621	851.710168937693	730.280861519807	
55	12.709000000000	791.428799065649	1011.396337136989	450.035378514126	987.476449790348	1438.147859661896	270.046609699824	1074.902272159867	1372.930954501102	440.554359853913	977.398124068989	1448.670570210102	606.424723479694	958.384716392660	1503.369782781581	423.774595276861	1015.486653505088	955.771726485199	579.845820251026	1018.117698439001	968.530360946051	303.573590583874	1094.066773288372	779.067494479158	559.761547156102	1046.544746214355	659.959029749561	634.094075578618	1138.404157240185	615.254447858186	561.722727036660	1151.996999182313	504.669454286283	588.172293477986	1051.769622563347	748.974266232086	335.656834119848	954.856357459701	636.382350511908	280.107101566511	1034.132291914711	556.021818427745	344.249636117842	1029.660054419824	488.364848307976	356.832173408607	1002.423051125957	417.267763221526	350.971849819183	909.914932980071	303.592469169073	303.089145751089	957.781114872351	193.701319961154	379.123071181380	1076.990116719189	429.545370064768	592.627756655188	955.857387214983	388.285184718750	652.199373064548	943.760726910514	279.000778359159	602.756770131178	743.673491294851	212.604590696042	576.062778564916	914.356026324628	157.228250814680	610.680412382220	804.478888085817	147.871392381148	643.105167975909	983.904069382554	45.133648336925	626.406729814383	825.527817529747	39.298899922964	425.219563076943	900.727590048868	35.803283113834	345.785353685900	984.534461848383	95.821519017007	372.613477928750	1113.194107565524	40.205638922092	347.237466441042	1007.321704796442	1097.566558476988	126.431153307397	1220.833093609467	947.049303491885	133.075398763572	878.427128405021	1115.127391393859	721.142209570247	902.978603942772	854.737002286098	727.609183742596	
56	12.722500000000	790.378787686936	1011.880136498435	448.826497996458	988.681882675136	1438.001598220788	268.787037853574	1074.431245820563	1373.177764951559	440.259823033400	975.604086821729	1449.635960231955	604.951307105992	958.238540128785	1503.653089368371	422.170530107083	1013.777682483507	956.693630178474	579.850662975411	1018.140764537454	968.825489670998	303.453333999105	1094.302630955728	782.083551917577	559.314512936307	1049.033976102600	662.364973909967	634.046678277465	1141.192671080690	618.900330759722	561.308056985456	1156.968512178418	508.936570202562	587.941182654191	1049.198457250556	748.260195978591	336.385954262453	951.365569693936	636.577481028059	280.014985922286	1029.295514158288	555.504650337377	344.628916528919	1024.051039108274	488.139022506562	357.161497178138	996.986240779608	417.288564244445	351.072252557725	904.531621791130	303.637628152307	303.023081524218	952.379990346642	193.766145333322	379.151317159427	1084.073850201878	432.186460343358	592.506142090275	964.444886678653	387.036089615329	652.131048706527	955.943284480290	277.354320293616	602.806610762988	758.235491955077	203.628086219528	576.190150933097	930.723946746785	154.992911044769	610.951028123527	821.436224934866	141.824431487509	643.682040387827	1004.397822652196	46.041486030948	627.551069985878	820.033812087693	39.287728492666	425.164907862239	895.269696314215	35.788294745448	345.747922368181	979.068224587611	95.820246182227	372.581465006764	1107.737531786044	40.222748227449	347.215615290002	1013.159745487081	1097.826267595317	125.555085806110	1230.686081944188	953.412339158837	132.330173113650	869.201461595164	1118.677210312521	719.150633305934	888.622840305103	857.870723523939	725.053275351991	
